<?xml version="1.0" encoding="UTF-8"?>
<!DOCTYPE svg PUBLIC "-//W3C//DTD SVG 1.1//EN" "http://www.w3.org/Graphics/SVG/1.1/DTD/svg11.dtd">
<!-- Creator: CorelDRAW -->
<svg xmlns="http://www.w3.org/2000/svg" xml:space="preserve" width="11.8686mm" height="1.7167mm" version="1.1" style="shape-rendering:geometricPrecision; text-rendering:geometricPrecision; image-rendering:optimizeQuality; fill-rule:evenodd; clip-rule:evenodd"
viewBox="0 0 76.69 11.09"
 xmlns:xlink="http://www.w3.org/1999/xlink"
 xmlns:xodm="http://www.corel.com/coreldraw/odm/2003">
 <defs>
  <style type="text/css">
   <![CDATA[
    .fil0 {fill:#FEFEFE}
    .fil1 {fill:#ED3237}
   ]]>
  </style>
 </defs>
 <g id="Capa_x0020_1">
  <metadata id="CorelCorpID_0Corel-Layer"/>
  <g id="_2253435836928">
   <path class="fil0" d="M52.9 4.4l0.77 -1.94 1.76 0 0.31 0 -0 0c1.47,0.04 1.95,0.45 1.76,0.97 -0.2,0.52 -1.24,0.96 -2.78,0.97l0 0 -0.06 0 -1.74 0zm-22.71 3.92l0.77 -1.94 1.75 0 0.3 0 -0 0c1.47,0.04 1.95,0.45 1.76,0.97 -0.2,0.52 -1.24,0.96 -2.78,0.97l0 0 -0.06 0 -1.74 0zm1.55 -3.92l0.77 -1.94 1.76 0 0.3 0 -0 0c1.47,0.04 1.95,0.45 1.76,0.97 -0.2,0.52 -1.24,0.96 -2.78,0.97l-0 0 -0.06 0 -1.74 0zm1.69 6.69l0.21 0 0 -0c5.14,-0.04 8.54,-1.01 9.2,-2.73 0.62,-1.63 -0.69,-2.49 -2.39,-2.95 2.36,-0.41 3.9,-1.08 4.31,-2.17 0.66,-1.72 -0.97,-3.11 -5.87,-3.23l0.01 -0.01 -1.02 0 -4.39 0 0 0 -5.4 0 -8.33 5.2 3.89 5.9 9.78 0zm30.86 -0l1.06 0 6.97 0 4.38 -11.09 -8.02 0 -4.09 10.37 -4.46 -4.14c3.08,-0.41 5.05,-1.21 5.8,-2.99 0.72,-1.7 -0.97,-3.11 -5.87,-3.23l0.01 -0.01 -1.02 0 -12.41 0 -4.38 11.09 8.02 0 1.63 -4.13 4.44 4.13 7.96 0z"/>
   <polygon class="fil1" points="13.34,11.09 21.36,11.09 17.47,5.2 25.8,0 17.77,0 15.13,1.65 14.04,0 6.01,0 9.45,5.2 -0,11.09 8.02,11.09 11.79,8.74 "/>
  </g>
 </g>
</svg>
